<svg xmlns="http://www.w3.org/2000/svg" width="17.641" height="21.781" viewBox="0 0 17.641 21.781">
  <g id="Apple" transform="translate(-1.976 1.1)">
    <g id="Stroke-82" transform="translate(1.976 4.735)">
      <path id="Path_1686" data-name="Path 1686" d="M7.9,23.446h0c-1.764,0-2.986-1.561-3.868-2.918-2.239-3.461-2.714-7.8-1.086-10.314A5.6,5.6,0,0,1,7.488,7.5a6.849,6.849,0,0,1,2.239.475,3.647,3.647,0,0,0,1.425.339,3.028,3.028,0,0,0,1.221-.339A6.964,6.964,0,0,1,14.749,7.5a5.488,5.488,0,0,1,4.139,2.171.528.528,0,0,1,.136.543.785.785,0,0,1-.339.475,3.3,3.3,0,0,0-1.764,3.257A3.38,3.38,0,0,0,19.159,17a.612.612,0,0,1,.407.407.749.749,0,0,1,0,.543,13.259,13.259,0,0,1-1.289,2.375c-1.018,1.493-2.239,3.053-3.868,3.053a3.359,3.359,0,0,1-1.628-.407,3.153,3.153,0,0,0-1.628-.407,3.585,3.585,0,0,0-1.628.407A2.733,2.733,0,0,1,7.9,23.446Z" transform="translate(-1.976 -7.5)" fill="#fff"/>
    </g>
    <g id="Stroke-83" transform="translate(9.744 -1.1)">
      <path id="Path_1687" data-name="Path 1687" d="M14.29,4.871h-.136a.731.731,0,0,1-.679-.543,4.631,4.631,0,0,1,1.086-3.6A5.292,5.292,0,0,1,17.954-1.1a.727.727,0,0,1,.746.611,4.558,4.558,0,0,1-1.086,3.6h0A4.217,4.217,0,0,1,14.29,4.871Z" transform="translate(-13.424 1.1)" fill="#fff"/>
    </g>
  </g>
</svg>
