<svg id="Group_16" data-name="Group 16" xmlns="http://www.w3.org/2000/svg" width="16.352" height="16.325" viewBox="0 0 16.352 16.325">
  <path id="Path_8" data-name="Path 8" d="M5.943,8.345a.27.27,0,0,1-.271.271H4.656a.27.27,0,0,1-.271-.271V7.329a.27.27,0,0,1,.271-.271H5.672a.27.27,0,0,1,.271.271ZM8.066,7.333a.27.27,0,0,0-.271-.271H6.779a.27.27,0,0,0-.271.271V8.349a.27.27,0,0,0,.271.271H7.795a.27.27,0,0,0,.271-.271Zm2.123,0a.27.27,0,0,0-.271-.271H8.9a.27.27,0,0,0-.271.271V8.349A.27.27,0,0,0,8.9,8.62H9.918a.27.27,0,0,0,.271-.271ZM5.943,9.4a.27.27,0,0,0-.271-.271H4.656a.27.27,0,0,0-.271.271v1.016a.27.27,0,0,0,.271.271H5.672a.27.27,0,0,0,.271-.271Zm2.123,0a.27.27,0,0,0-.271-.271H6.779a.27.27,0,0,0-.271.271v1.016a.27.27,0,0,0,.271.271H7.795a.27.27,0,0,0,.271-.271Zm1.852-.271H8.9a.27.27,0,0,0-.271.271v1.016a.27.27,0,0,0,.271.271H9.918a.27.27,0,0,0,.271-.271V9.4A.27.27,0,0,0,9.918,9.128ZM3.547,11.193H2.534a.27.27,0,0,0-.271.271V12.48a.27.27,0,0,0,.271.271H3.55a.27.27,0,0,0,.271-.271V11.464A.272.272,0,0,0,3.547,11.193ZM3.821,9.4a.27.27,0,0,0-.271-.271H2.534a.27.27,0,0,0-.271.271v1.016a.27.27,0,0,0,.271.271H3.55a.27.27,0,0,0,.271-.271Zm3.974,1.795H6.779a.27.27,0,0,0-.271.271V12.48a.27.27,0,0,0,.271.271H7.795a.27.27,0,0,0,.271-.271V11.464A.27.27,0,0,0,7.795,11.193Zm-2.123,0H4.656a.27.27,0,0,0-.271.271V12.48a.27.27,0,0,0,.271.271H5.672a.27.27,0,0,0,.271-.271V11.464A.27.27,0,0,0,5.672,11.193ZM12.04,8.62a.27.27,0,0,0,.271-.271V7.333a.27.27,0,0,0-.271-.271H11.024a.27.27,0,0,0-.271.271V8.349a.27.27,0,0,0,.271.271ZM1.594,14.957H9.306a4.156,4.156,0,0,1-.2-1.23H1.594a.362.362,0,0,1-.361-.361V6.1h12.09V9.482a4.153,4.153,0,0,1,1.23.191V3.559a1.6,1.6,0,0,0-1.594-1.594H11.174V.982A.582.582,0,0,0,10.593.4H9.687a.582.582,0,0,0-.582.582v.986H5.448V.982A.582.582,0,0,0,4.867.4H3.961a.582.582,0,0,0-.582.582v.986H1.594A1.6,1.6,0,0,0,0,3.562v9.8A1.6,1.6,0,0,0,1.594,14.957ZM16.352,13.68a3.045,3.045,0,1,1-3.045-3.045A3.046,3.046,0,0,1,16.352,13.68Zm-1.508-.789a.353.353,0,0,0-.107-.257.365.365,0,0,0-.518,0L12.9,13.958l-.508-.508a.365.365,0,0,0-.518,0,.359.359,0,0,0-.107.257.353.353,0,0,0,.107.257l.765.765a.365.365,0,0,0,.518,0l1.581-1.581A.344.344,0,0,0,14.845,12.891Z" transform="translate(0 -0.4)" fill="#9fadb3"/>
</svg>
