<svg xmlns="http://www.w3.org/2000/svg" width="24.246" height="24.2" viewBox="0 0 24.246 24.2">
  <path id="call-svgrepo-com" d="M43.23,37.692l-2.5-2.018a2.423,2.423,0,0,0-2.946-.081L35.4,37.329a.8.8,0,0,1-1.049-.081L30.435,33.7,26.842,29.74a.8.8,0,0,1-.081-1.049L28.5,26.309a2.423,2.423,0,0,0-.081-2.946L26.4,20.86a2.416,2.416,0,0,0-3.592-.2l-2.18,2.18a2.6,2.6,0,0,0-.727,1.816,20.8,20.8,0,0,0,19.5,19.5,2.375,2.375,0,0,0,1.816-.727l2.18-2.179A2.314,2.314,0,0,0,43.23,37.692Z" transform="translate(-19.9 -19.954)" fill="#fff"/>
</svg>
