<svg xmlns="http://www.w3.org/2000/svg" width="8.038" height="7.945" viewBox="0 0 8.038 7.945">
  <path id="duration-svgrepo-com" d="M21.566,23c-.063,0-.126,0-.189,0l.014.307c.058,0,.116,0,.176,0a3.665,3.665,0,1,1-3.387,5.07l.471-.142-.826-.585-.325.929.384-.114A3.973,3.973,0,1,0,21.566,23Zm-.525.035a3.948,3.948,0,0,0-.658.145l.1.291a3.656,3.656,0,0,1,.6-.132Zm-.972.258a3.944,3.944,0,0,0-.6.309l.162.259a3.629,3.629,0,0,1,.556-.284Zm-.883.5a3.992,3.992,0,0,0-.5.445l.222.209a3.723,3.723,0,0,1,.46-.41l-.082-.112Zm1.185.146-.075.3,3.7.946.075-.3Zm-1.907.553a3.993,3.993,0,0,0-.374.557l.267.15a3.7,3.7,0,0,1,.345-.517Zm2.176.15a2.436,2.436,0,0,0,.242,1.35,2.493,2.493,0,0,0,.373.576,1.168,1.168,0,0,0,.208.186l-.092.361a1.14,1.14,0,0,0-.273.063,2.6,2.6,0,0,0-1.463,1.393l2.856.731a2.436,2.436,0,0,0-.242-1.35,2.493,2.493,0,0,0-.373-.576,1.168,1.168,0,0,0-.208-.186l.092-.361a1.251,1.251,0,0,0,.273-.063A2.6,2.6,0,0,0,23.5,25.373l-2.856-.731Zm-2.7.709a4.014,4.014,0,0,0-.222.636l.3.072a3.665,3.665,0,0,1,.2-.583Zm-.291.965a3.984,3.984,0,0,0-.055.656v.015l.307,0v-.012a3.7,3.7,0,0,1,.05-.607Zm1.488,2.446-.075.3,3.7.946.075-.3Z" transform="translate(-17.5 -23)" fill="#415460"/>
</svg>
