<svg xmlns="http://www.w3.org/2000/svg" width="42.715" height="44.211" viewBox="0 0 42.715 44.211">
  <g id="horse" transform="translate(-7.952)">
    <path id="Path_1686" data-name="Path 1686" d="M319.215,96.784a.705.705,0,0,1,.706.705v11.658a.705.705,0,0,1-.706.706s0,1.411,0,1.411a.706.706,0,0,1,.706.706v2.238a8.036,8.036,0,0,1,1.411.252v-9.646a.706.706,0,0,1,1.411,0v10.175a8.108,8.108,0,0,1,1.411.876v-5.407a.706.706,0,0,1,1.411,0v6.8a8.054,8.054,0,0,1,1.693,4.107,16.008,16.008,0,0,1,3.646-.533A25.82,25.82,0,0,0,319.215,94.9S319.215,96.784,319.215,96.784Z" transform="translate(-281.983 -85.969)" fill="#6f362d"/>
    <path id="Path_1687" data-name="Path 1687" d="M42.13,40.868a35.519,35.519,0,0,1-3.5,7.051c-1.773,2.969-3.453,5.784-3.648,9.448,9.452-.119,13.928-2.571,17.889-4.74A32.91,32.91,0,0,1,57.486,50.4a6.691,6.691,0,0,0-6.665-6.211.705.705,0,0,1-.705-.706V40.572a.705.705,0,0,1,.705-.706V38.456a.706.706,0,0,1-.705-.706V26.092a.705.705,0,0,1,.705-.706V23.5a25.869,25.869,0,0,0-9.141-3.553l-.017,0-.043-.01-.029-.009-.035-.012-.033-.014-.029-.013-.033-.018-.027-.016-.03-.02-.027-.02-.025-.02-.028-.025-.02-.02-.028-.03-.017-.02-.025-.033-.016-.023L41.2,19.6l-.016-.029-.015-.03c-.006-.012-.011-.025-.016-.038l-.008-.018c-.011-.032-1.042-2.831-3-3.4V20.8a.706.706,0,0,1-.207.5l-2.724,2.724L23.551,35.688a2.044,2.044,0,1,0,2.89,2.89.706.706,0,0,1,.34-.189l8.824-2.033a.705.705,0,0,1,.49.065,7.533,7.533,0,0,0,10.781-8.706.705.705,0,0,1,1.358-.384,8.957,8.957,0,0,1-2.281,8.763,8.862,8.862,0,0,1-3.873,2.278c-.116.553-.253,1.086-.407,1.6l.012,0A.705.705,0,0,1,42.13,40.868ZM38.6,27.881H35.565l-3.212,3.212a.706.706,0,0,1-1-1l3.419-3.419a.706.706,0,0,1,.5-.207H38.6a.705.705,0,1,1,0,1.411Z" transform="translate(-13.589 -14.572)" fill="#8a6f64"/>
    <path id="Path_1688" data-name="Path 1688" d="M45.855,15.3A27.05,27.05,0,0,0,28.729,4.061C28.257,2.978,26.7,0,23.853,0a.705.705,0,0,0-.705.706V5.934L21.834,7.248V3.618a.706.706,0,0,0-1.411,0V8.659L8.964,20.118a3.455,3.455,0,0,0,4.731,5.032l8.387-1.933a8.958,8.958,0,0,0,6.409.582,8.862,8.862,0,0,0,3.873-2.278,8.957,8.957,0,0,0,2.281-8.763.705.705,0,0,0-1.358.384,7.533,7.533,0,0,1-10.781,8.706.706.706,0,0,0-.49-.065l-8.824,2.033a.706.706,0,0,0-.34.189,2.044,2.044,0,0,1-2.89-2.89L21.627,9.45l2.725-2.725a.706.706,0,0,0,.207-.5V1.513c1.953.574,2.984,3.373,3,3.4l.008.018c0,.013.01.025.016.038l.015.03.016.029.021.033.016.023.025.033.017.02.028.03.02.02.028.025.025.02.027.02.03.02.027.016.033.018.029.013.033.014L28,5.35l.029.009.043.01.017,0A25.784,25.784,0,0,1,48.92,34.864a16.009,16.009,0,0,0-3.646.533,8.053,8.053,0,0,0-1.693-4.107v-6.8a.706.706,0,1,0-1.411,0V29.9a8.108,8.108,0,0,0-1.411-.876V18.844a.705.705,0,1,0-1.411,0V28.49a8.036,8.036,0,0,0-1.411-.252V26a.706.706,0,0,0-1.411,0v2.913a.705.705,0,0,0,.706.706A6.691,6.691,0,0,1,43.9,35.83a32.9,32.9,0,0,0-4.619,2.225c-3.96,2.169-8.437,4.62-17.889,4.74.195-3.664,1.875-6.479,3.648-9.448a35.514,35.514,0,0,0,3.5-7.051A.706.706,0,0,0,28.1,25.4l-.012,0a.7.7,0,0,0-.881.448,34.408,34.408,0,0,1-3.377,6.775c-1.988,3.33-3.867,6.476-3.867,10.882a.705.705,0,0,0,.705.706c10.312,0,15.291-2.727,19.291-4.918,2.965-1.624,5.526-3.027,9.56-3.027a.706.706,0,0,0,.694-.578A27.061,27.061,0,0,0,45.855,15.3Z" transform="translate(0)" fill="#34150c"/>
    <path id="Path_1689" data-name="Path 1689" d="M117.54,126.48h-3.327a.706.706,0,0,0-.5.207l-3.419,3.419a.706.706,0,0,0,1,1l3.212-3.212h3.035a.706.706,0,0,0,0-1.411Z" transform="translate(-92.529 -114.582)" fill="#34150c"/>
    <path id="Path_1690" data-name="Path 1690" d="M313.129,127.335V115.677a.706.706,0,1,0-1.411,0v11.658a.706.706,0,0,0,1.411,0Z" transform="translate(-275.192 -104.156)" fill="#34150c"/>
  </g>
</svg>
