<svg xmlns="http://www.w3.org/2000/svg" width="15.025" height="25.637" viewBox="0 0 15.025 25.637">
  <g id="location-svgrepo-com" transform="translate(0)">
    <path id="Path_5" data-name="Path 5" d="M62.156,0a7.521,7.521,0,0,0-7.513,7.513,7.444,7.444,0,0,0,.727,3.228c.01.022.02.043.031.064l5.676,10.99a1.214,1.214,0,0,0,2.157,0l5.675-10.987c.01-.019.019-.038.028-.057a7.443,7.443,0,0,0,.732-3.238A7.521,7.521,0,0,0,62.156,0Zm0,11.445a3.932,3.932,0,1,1,3.932-3.932A3.937,3.937,0,0,1,62.156,11.445Z" transform="translate(-54.643)" fill="#f1f9ff"/>
    <path id="Path_6" data-name="Path 6" d="M101.224,249.018H95.436a.728.728,0,1,0,0,1.457h5.788a.728.728,0,1,0,0-1.457Z" transform="translate(-90.817 -224.837)" fill="#f1f9ff"/>
  </g>
</svg>
