<svg xmlns="http://www.w3.org/2000/svg" width="4.889" height="8.342" viewBox="0 0 4.889 8.342">
  <g id="location-svgrepo-com_1_" data-name="location-svgrepo-com(1)" transform="translate(-54.643)">
    <path id="Path_1110" data-name="Path 1110" d="M57.087,0a2.447,2.447,0,0,0-2.444,2.444,2.422,2.422,0,0,0,.237,1.05l.01.021,1.847,3.576a.395.395,0,0,0,.7,0l1.846-3.575.009-.019a2.422,2.422,0,0,0,.238-1.053A2.447,2.447,0,0,0,57.087,0Zm0,3.724a1.279,1.279,0,1,1,1.279-1.279A1.281,1.281,0,0,1,57.087,3.724Z" fill="#415460"/>
    <path id="Path_1111" data-name="Path 1111" d="M96.828,249.018H94.945a.237.237,0,1,0,0,.474h1.883a.237.237,0,1,0,0-.474Z" transform="translate(-38.799 -241.15)" fill="#415460"/>
  </g>
</svg>
