<svg xmlns="http://www.w3.org/2000/svg" width="10.799" height="10.799" viewBox="0 0 10.799 10.799">
  <g id="Group_1558" data-name="Group 1558" transform="translate(-36.49 -698.17)">
    <path id="Path_1684" data-name="Path 1684" d="M5.062,10.125H.675V.676H5.062a.337.337,0,1,0,0-.675H.337A.338.338,0,0,0,0,.338V10.463a.338.338,0,0,0,.337.337H5.062a.337.337,0,0,0,0-.675Z" transform="translate(36.49 698.169)"/>
    <path id="Path_1685" data-name="Path 1685" d="M92.587,98.79l-2.329-2.362a.335.335,0,0,0-.477,0,.343.343,0,0,0,0,.482l1.755,1.78H84.586a.341.341,0,0,0,0,.682h6.949l-1.755,1.78a.343.343,0,0,0,0,.482.335.335,0,0,0,.477,0l2.328-2.362A.345.345,0,0,0,92.587,98.79Z" transform="translate(-45.395 604.544)"/>
  </g>
</svg>
