<svg xmlns="http://www.w3.org/2000/svg" width="15.329" height="21.33" viewBox="0 0 15.329 21.33">
  <path id="mark-svgrepo-com" d="M21.261,16.852c0-.283,0-.565,0-.846.008-1.117-.017-2.232-.022-3.35-.008-1.16-.059-2.317-.093-3.478-.015-.5-.039-1-.061-1.506-.024-.519-.091-1.033-.114-1.552-.046-1.095.009-2.189.022-3.283a.654.654,0,0,0-.649-.649.611.611,0,0,0-.183.038.6.6,0,0,0-.376-.143c-.558,0-1.112-.054-1.67-.07C17.781,2,17.441,2,17.1,2l-.789,0c-.6,0-1.2.013-1.8.03s-1.211.046-1.817.081c-.948.056-1.9.059-2.845.076-.341.008-.682.008-1.023.008-.621,0-1.242,0-1.862.045a.684.684,0,0,0-.459.19.644.644,0,0,0-.173.375.609.609,0,0,0-.114.339c0,.686.015,1.371,0,2.058S6.2,6.59,6.189,7.282c-.011.622-.025,1.246-.03,1.867s0,1.217-.017,1.827-.017,1.244-.021,1.867c0,.595-.031,1.188-.043,1.784-.014.658-.039,1.314-.05,1.971-.011.607-.04,1.214-.057,1.821-.011.4-.018.8-.025,1.2-.006.332,0,.663,0,.994-.009.692.012,1.386-.008,2.078a.644.644,0,0,0,.639.641.619.619,0,0,0,.231-.048.549.549,0,0,0,.6-.123c.309-.345.619-.689.938-1.025.371-.392.743-.781,1.1-1.185.781-.879,1.586-1.739,2.387-2.6.29-.311.562-.637.857-.945.226-.236.457-.468.686-.7.364.395.737.783,1.134,1.147.443.407.87.828,1.287,1.261.2.211.4.429.606.638s.413.414.616.625c.41.423.821.842,1.225,1.269.235.25.472.492.725.722.139.127.281.251.424.374a2.6,2.6,0,0,1,.316.3l0,.006.012.015v0a.563.563,0,0,0,.7.165.591.591,0,0,0,.229.048.614.614,0,0,0,.609-.609c0-.539-.006-1.076-.011-1.615-.006-.573-.025-1.145-.037-1.718-.011-.536,0-1.072.02-1.607C21.242,17.436,21.26,17.143,21.261,16.852Zm-1.684,4.491c-.374-.348-.715-.733-1.067-1.1-.814-.859-1.629-1.713-2.464-2.55-.166-.168-.337-.332-.507-.5s-.323-.3-.472-.456c-.357-.381-.7-.772-1.045-1.169a.494.494,0,0,0-.222-.144s-.005-.011-.01-.015a.614.614,0,0,0-.435-.177.6.6,0,0,0-.432.177c-.462.471-.909.954-1.337,1.455-.373.44-.759.863-1.143,1.294-.767.865-1.524,1.744-2.32,2.584-.265.28-.531.558-.79.844-.039.043-.08.084-.119.127q0-.969,0-1.936c0-1.185.057-2.368.082-3.551.015-.648.037-1.294.059-1.939.021-.619.027-1.236.037-1.856.022-1.214.033-2.427.022-3.641-.008-.919.022-1.837.031-2.755.008-.846.03-1.69.04-2.534.479-.034.958-.059,1.44-.064.632-.006,1.264-.025,1.895-.033,1.258-.018,2.51-.135,3.768-.165.615-.015,1.232-.014,1.848-.014.267,0,.537,0,.8,0,.437,0,.873-.015,1.309.012.386.025.772.046,1.158.064,0,.532.014,1.063.02,1.6.006.646.021,1.292.078,1.935s.093,1.28.112,1.923c.017.58.046,1.159.064,1.739s.034,1.156.043,1.735c.008.561,0,1.12.015,1.68s.011,1.114.006,1.671c0,.584.011,1.166-.017,1.751-.039.875-.031,1.757.006,2.633.021.463.021.927.021,1.39,0,.142,0,.284,0,.426C19.892,21.639,19.737,21.49,19.578,21.343Zm-.4-4.736c.03.447.067.894.094,1.341a.566.566,0,0,1-.564.564.573.573,0,0,1-.565-.564c-.021-.381-.045-.759-.078-1.14-.05-.542-.061-1.089-.091-1.632-.034-.6-.091-1.2-.123-1.8-.034-.629-.037-1.258-.057-1.887-.021-.664-.06-1.325-.1-1.987a.618.618,0,0,1,1.236,0c.034.607.05,1.213.053,1.82s-.025,1.207,0,1.809.079,1.205.115,1.808C19.125,15.492,19.139,16.049,19.176,16.607Z" transform="translate(-5.939 -2)" fill="#7c7c7c"/>
</svg>
