<svg xmlns="http://www.w3.org/2000/svg" width="28.122" height="21.879" viewBox="0 0 28.122 21.879">
  <g id="mastercard-2-logo-svgrepo-com_1_" data-name="mastercard-2-logo-svgrepo-com(1)" transform="translate(0 0.001)">
    <path id="Path_1690" data-name="Path 1690" d="M129.669,1320.162v.056h.052a.057.057,0,0,0,.028-.007.025.025,0,0,0,.011-.021.024.024,0,0,0-.011-.021.051.051,0,0,0-.028-.007h-.052Zm.053-.04a.1.1,0,0,1,.063.018.061.061,0,0,1,.022.05.057.057,0,0,1-.018.044.086.086,0,0,1-.05.021l.07.08h-.054l-.065-.08h-.021v.08h-.045v-.213h.1Zm-.014.286a.168.168,0,0,0,.069-.014.181.181,0,0,0,.056-.038.178.178,0,0,0,.038-.056.178.178,0,0,0-.038-.2.171.171,0,0,0-.125-.051.19.19,0,0,0-.07.013.184.184,0,0,0-.057.038.182.182,0,0,0-.038.2.168.168,0,0,0,.038.056.182.182,0,0,0,.128.052m0-.408a.235.235,0,0,1,.165.067.227.227,0,0,1,.05.251.236.236,0,0,1-.05.073.252.252,0,0,1-.074.049.231.231,0,0,1-.091.018.237.237,0,0,1-.092-.018.242.242,0,0,1-.075-.049.239.239,0,0,1-.049-.075.227.227,0,0,1,.05-.251.22.22,0,0,1,.075-.049.23.23,0,0,1,.092-.018m-21.528-.819a.7.7,0,1,1,.7.739.693.693,0,0,1-.7-.739m1.868,0v-1.154h-.5v.281a.874.874,0,0,0-.729-.338,1.213,1.213,0,0,0,0,2.424.875.875,0,0,0,.729-.338v.28h.5v-1.154Zm16.955,0a.7.7,0,1,1,.7.739.693.693,0,0,1-.7-.739m1.869,0V1317.1h-.5v1.208a.874.874,0,0,0-.729-.338,1.213,1.213,0,0,0,0,2.424.875.875,0,0,0,.729-.338v.28h.5Zm-12.6-.763a.573.573,0,0,1,.584.56h-1.2a.594.594,0,0,1,.613-.56m.01-.45a1.213,1.213,0,0,0,.034,2.424,1.4,1.4,0,0,0,.946-.323l-.246-.372a1.1,1.1,0,0,1-.671.241.641.641,0,0,1-.69-.565h1.713c0-.062.01-.125.01-.193a1.107,1.107,0,0,0-1.1-1.212m6.058,1.212a.7.7,0,1,1,.7.739.692.692,0,0,1-.7-.739m1.868,0v-1.153h-.5v.281a.875.875,0,0,0-.729-.338,1.213,1.213,0,0,0,0,2.424.876.876,0,0,0,.729-.338v.28h.5v-1.154Zm-4.7,0a1.166,1.166,0,0,0,1.231,1.212,1.206,1.206,0,0,0,.83-.275l-.241-.406a1.014,1.014,0,0,1-.6.208.74.74,0,0,1,0-1.478,1.017,1.017,0,0,1,.6.208l.241-.406a1.207,1.207,0,0,0-.83-.275,1.166,1.166,0,0,0-1.231,1.212m6.469-1.212a.681.681,0,0,0-.608.338v-.28h-.5v2.307h.5v-1.293c0-.382.164-.594.492-.594a.812.812,0,0,1,.314.058l.155-.473a1.067,1.067,0,0,0-.358-.063m-13.45.241a1.726,1.726,0,0,0-.941-.241c-.585,0-.961.28-.961.739,0,.376.28.608.8.681l.237.034c.275.039.405.111.405.241,0,.178-.183.28-.526.28a1.23,1.23,0,0,1-.768-.241l-.236.391a1.665,1.665,0,0,0,1,.3c.666,0,1.053-.314,1.053-.753,0-.406-.3-.618-.806-.69l-.236-.034c-.217-.028-.391-.072-.391-.226s.164-.27.439-.27a1.489,1.489,0,0,1,.719.2l.217-.406Zm6.475-.241a.68.68,0,0,0-.608.338v-.281h-.5v2.307h.5v-1.293c0-.382.164-.594.492-.594a.812.812,0,0,1,.314.058l.155-.473a1.067,1.067,0,0,0-.358-.063m-4.282.058H113.9v-.7h-.507v.7h-.468v.458h.468v1.053c0,.535.208.854.8.854a1.18,1.18,0,0,0,.628-.178l-.145-.43a.928.928,0,0,1-.444.13c-.251,0-.333-.155-.333-.386v-1.043h.821Zm-7.5,2.308v-1.448a.859.859,0,0,0-.908-.917.893.893,0,0,0-.811.411.847.847,0,0,0-.763-.411.763.763,0,0,0-.676.343v-.285h-.5v2.307h.506v-1.279a.54.54,0,0,1,.565-.614c.333,0,.5.217.5.608v1.284h.507v-1.279a.544.544,0,0,1,.565-.613c.343,0,.506.217.506.608v1.284Z" transform="translate(-102.104 -1298.583)" fill="#231f20"/>
    <path id="Path_1691" data-name="Path 1691" d="M1929.582,977.557v-.337h-.088l-.1.232-.1-.232h-.088v.337h.063V977.3l.095.219h.065l.095-.22v.255h.062Zm-.558,0v-.28h.113v-.057h-.287v.057h.112v.28h.062Z" transform="translate(-1901.731 -963.482)" fill="#f79410"/>
    <path id="Path_1692" data-name="Path 1692" d="M737.314,145.816h-7.6V132.15h7.6Z" transform="translate(-719.451 -130.293)" fill="#ff5f00"/>
    <path id="Path_1693" data-name="Path 1693" d="M10.741,8.69a8.677,8.677,0,0,1,3.319-6.833,8.691,8.691,0,1,0,0,13.666A8.677,8.677,0,0,1,10.741,8.69" transform="translate(0 0)" fill="#eb001b"/>
    <path id="Path_1694" data-name="Path 1694" d="M1014.171,8.69a8.691,8.691,0,0,1-14.061,6.833,8.692,8.692,0,0,0,0-13.666,8.691,8.691,0,0,1,14.061,6.833" transform="translate(-986.049 0)" fill="#f79e1b"/>
  </g>
</svg>
