<svg xmlns="http://www.w3.org/2000/svg" width="22.087" height="12.852" viewBox="0 0 22.087 12.852">
  <path id="plane-fly-svgrepo-com" d="M23,9.32a1.06,1.06,0,0,0-.1-.76,4.93,4.93,0,0,0-6.75-1.8L14,8,9,5.65a1,1,0,0,0-.92,0l-3,1.73a1,1,0,0,0-.04,1.71l3.3,2.08-1.74,1-4.78.58a1,1,0,0,0-.53,1.75l3.54,3.06A3,3,0,0,0,8.38,18L22.5,9.93A1,1,0,0,0,23,9.32Zm-15.53,7a1,1,0,0,1-1.2-.18l-1.9-1.63,2.73-.33a1,1,0,0,0,.38-.13l3.36-1.93a1,1,0,0,0,.03-1.71L7.57,8.32l1.1-.63,5,2.32a1,1,0,0,0,.92,0l2.56-1.48a3,3,0,0,1,3.36.29Z" transform="translate(-0.943 -5.538)" fill="#9fadb3"/>
</svg>
