<svg xmlns="http://www.w3.org/2000/svg" width="16.246" height="16.246" viewBox="0 0 16.246 16.246">
  <g id="trip-svgrepo-com" transform="translate(-2 -2)">
    <path id="Path_3" data-name="Path 3" d="M12.433,16.622H5.655a2.031,2.031,0,1,1,0-4.062h5.686a2.843,2.843,0,1,0,0-5.686H7.393A7.97,7.97,0,0,1,6.293,8.5h5.049a1.218,1.218,0,0,1,0,2.437H5.655a3.655,3.655,0,0,0,0,7.311h7.793a8.46,8.46,0,0,1-1.015-1.625ZM4.437,2A2.44,2.44,0,0,0,2,4.437,5.235,5.235,0,0,0,4.437,8.5,5.237,5.237,0,0,0,6.874,4.437,2.44,2.44,0,0,0,4.437,2Zm0,3.655A1.219,1.219,0,1,1,5.656,4.437,1.219,1.219,0,0,1,4.437,5.655Z" fill="#9fadb3"/>
    <path id="Path_4" data-name="Path 4" d="M18.437,14A2.44,2.44,0,0,0,16,16.437,5.235,5.235,0,0,0,18.437,20.5a5.237,5.237,0,0,0,2.437-4.062A2.44,2.44,0,0,0,18.437,14Zm0,3.655a1.219,1.219,0,1,1,1.219-1.218A1.219,1.219,0,0,1,18.437,17.655Z" transform="translate(-2.628 -2.252)" fill="#9fadb3"/>
  </g>
</svg>
