<svg id="visa-svgrepo-com" xmlns="http://www.w3.org/2000/svg" width="32.76" height="21" viewBox="0 0 32.76 21">
  <path id="Path_1687" data-name="Path 1687" d="M1.68,0h29.4a1.68,1.68,0,0,1,1.68,1.68V19.32A1.68,1.68,0,0,1,31.08,21H1.68A1.68,1.68,0,0,1,0,19.32V1.68A1.68,1.68,0,0,1,1.68,0Z" fill="#0e4595"/>
  <path id="Path_1688" data-name="Path 1688" d="M123.631,157.358l1.4-8.222h2.241l-1.4,8.222Zm10.337-8.045a5.788,5.788,0,0,0-2.009-.345c-2.214,0-3.774,1.115-3.788,2.713-.013,1.181,1.114,1.841,1.964,2.234.872.4,1.166.66,1.161,1.02-.006.551-.7.8-1.341.8a4.7,4.7,0,0,1-2.11-.432l-.289-.131-.315,1.841a7.1,7.1,0,0,0,2.5.439c2.356,0,3.885-1.1,3.9-2.809.008-.935-.589-1.647-1.882-2.234-.783-.38-1.263-.634-1.258-1.019,0-.342.406-.707,1.283-.707a4.136,4.136,0,0,1,1.677.315l.2.095.3-1.782m5.767-.177H138a1.115,1.115,0,0,0-1.174.682l-3.328,7.535h2.353s.385-1.013.472-1.236l2.87,0c.067.288.273,1.232.273,1.232h2.08l-1.814-8.217Zm-2.748,5.309c.185-.474.893-2.3.893-2.3-.013.022.184-.476.3-.785l.151.709s.429,1.963.519,2.374Zm-15.259-5.309-2.194,5.607L119.3,153.6a6.417,6.417,0,0,0-3.1-3.449l2.006,7.19,2.371,0,3.528-8.206h-2.374" transform="translate(-111.317 -142.711)" fill="#fff"/>
  <path id="Path_1689" data-name="Path 1689" d="M63.84,152.956H60.227l-.029.171a7.418,7.418,0,0,1,5.444,4.3l-.786-3.778a.938.938,0,0,0-1.016-.694" transform="translate(-57.67 -146.532)" fill="#f2ae14"/>
</svg>
